<svg width="154" height="60" viewBox="0 0 154 60" fill="none" xmlns="http://www.w3.org/2000/svg">
<path d="M1.60096 30.5886C1.78368 30.4332 1.99437 30.2557 2.23233 30.0576C3.22639 29.2304 4.69601 28.0452 6.5897 26.6214C10.3779 23.7733 15.8587 19.9735 22.6206 16.1738C36.1575 8.56712 54.7593 1 75.1593 1C95.5644 1 114.875 8.57038 129.126 16.184C136.243 19.9866 142.079 23.7894 146.133 26.6402C148.16 28.0653 149.74 29.2517 150.812 30.0802C151.056 30.2685 151.273 30.4382 151.463 30.5881C151.277 30.7292 151.064 30.8883 150.827 31.0642C149.756 31.86 148.175 32.9996 146.148 34.3685C142.094 37.1067 136.258 40.7596 129.141 44.4123C114.89 51.7255 95.5736 59 75.1593 59C54.7499 59 36.1427 51.7285 22.6057 44.422C15.8433 40.772 10.3623 37.1221 6.57422 34.3865C4.68056 33.0189 3.21101 31.8806 2.21705 31.086C1.98568 30.9011 1.78011 30.7348 1.60096 30.5886Z" stroke="#222224" stroke-width="2"/>
<mask id="mask0_112_251" style="mask-type:alpha" maskUnits="userSpaceOnUse" x="0" y="0" width="154" height="60">
<path d="M153.281 30.604C153.281 30.604 116.637 60 75.3614 60C34.0862 60 0.260742 30.604 0.260742 30.604C0.260742 30.604 34.0862 0 75.3614 0C116.637 0 153.281 30.604 153.281 30.604Z" fill="#d6e04e"/>
</mask>
<g mask="url(#mask0_112_251)">
<circle cx="76.7709" cy="30.2013" r="34.0336" stroke="#222224" stroke-width="2"/>
</g>
<circle cx="76.5687" cy="30" r="13.0872" fill="#222224"/>
</svg>
