<?xml version="1.0" encoding="utf-8"?>
<!-- Generator: Adobe Illustrator 25.3.0, SVG Export Plug-In . SVG Version: 6.00 Build 0)  -->
<svg version="1.1" baseProfile="tiny" id="Layer_1" xmlns="http://www.w3.org/2000/svg" xmlns:xlink="http://www.w3.org/1999/xlink"
	 x="0px" y="0px" viewBox="0 0 600 600" overflow="visible" xml:space="preserve">
<g>
	<path fill="#6FCCDD" d="M261.93,266.34v-14.4h81.61v25.62h21.34v32.31h-21.34v24.1h17.09v26.78h-17.09v7.06h-81.61V352h-9.15
		v-18.03h9.15v-15.35h30.07v-41.06h-30.07V266.34z M343.53,81.19v14.4l0,0v39.48h15.25v10.46h-15.25v11.06h30.49v10.46h-30.49v27.34
		h-6.85v20.96h-99.15v-20.96h15.65v-27.34h39.24v-10.46h-21.74v-11.06h6.5v-10.46h-15.25V81.19h-36.59v53.88h15.25v10.46h-15.25
		v11.06h30.49v10.46h-30.49v27.34h-6.9v20.96h-117.4v26.15h24.39v10.44h133.14v25.62h12.6v32.31h-21.34l-24.49,24.1h15.35V352h9.15
		l-24.49,15.8h-99.9v36.59h99.9v38.34h9.15v57.57h0.5v38.25h29.59V500.3h6.5v-57.57h-9.15v-38.34h81.61v38.34h9.12v57.57h-15.25
		v38.25H374V500.3h15.25v-57.57h-9.15V400.9h99.89v-33.09h-99.86V352h-9.15v-18.03h9.15v-24.1h21.34v-32.31h-21.34v-25.62h99.89
		V241.5h-24.39v-26.15h-99.89v-20.96h15.65v-27.34h39.24v-10.46h-21.74v-11.06h6.5v-10.46h-15.25V81.19H343.53z"/>
	<path fill="#ED1E24" d="M282.05,250.6v-14.4h81.61v25.62H385v32.31h-21.34v24.1h-9.15v18.03h9.15v15.8h-81.61v-15.8h-9.15v-18.03
		h9.15v-24.1h21.32v-32.31h-21.32V250.6z M363.65,65.45v14.4l0,0v39.48h15.25v10.46h-6.5v11.06h13.87v10.46h-22.62v27.34h-24.34
		v20.96h-81.66v-20.96h24.39V151.3h30.49v-10.46h-30.49v-11.06h15.25v-10.46h-15.25V65.45h-36.59v53.88h15.25v10.46h-6.5v11.06h16.5
		v10.46h-25.24v27.34h-24.39v20.96h-99.9v26.15h24.39v10.44h99.9v25.62h21.34v32.31h-21.34v24.1h-9.15v18.03h9.15v15.8h-99.9v36.59
		h99.9v38.34h9.15v57.57h-7.37v38.25h28.72v-38.25h15.25v-57.57h-9.15v-38.34h81.61v38.34h9.12v57.57h-9.12v38.25h30.47v-38.25
		h15.25v-57.57h-9.15v-38.34h99.89v-34.84h-99.86v-17.55h-9.15v-18.03h9.15v-24.1h21.34v-32.31h-21.34v-25.62h99.89v-10.44h-24.39
		v-26.15h-99.89v-20.96h24.39V151.3h30.49v-10.46h-30.49v-11.06h15.25v-10.46h-15.25V65.45H363.65z"/>
	<path fill="#FFFFFF" d="M271.47,256.72v-14.4h81.61v25.62h21.34v32.31h-21.34v24.1h-9.15v18.03h9.15v15.8h-81.61v-15.8h-9.15
		v-18.03h9.15v-24.1h21.32v-32.31h-21.32V256.72z M353.08,71.57v14.4l0,0v39.48h15.25v10.46h-15.25v11.06h30.49v10.46h-30.49v27.34
		h-24.34v20.96h-81.66v-20.96h24.39v-27.34h30.49v-10.46h-30.49v-11.06h15.25v-10.46h-15.25V71.57h-36.59v53.88h15.25v10.46h-15.25
		v11.06h30.49v10.46h-30.49v27.34h-24.39v20.96h-99.9v26.15h24.39v10.44h99.9v25.62h21.34v32.31h-21.34v24.1h-9.15v18.03h9.15v15.8
		h-117.4v36.59h117.4v38.34h9.15v57.57h-15.25v38.25h36.59v-38.25h15.25v-57.57h-9.15v-38.34h81.61v38.34h9.12v57.57h-15.25v38.25
		h36.59v-38.25h15.25v-57.57h-9.15v-38.34h99.89v-36.59h-99.86v-15.8h-9.15v-18.03h9.15v-24.1h21.34v-32.31h-21.34v-25.62h99.89
		v-10.44h-24.39v-26.15h-99.89v-20.96h24.39v-27.34h30.49v-10.46h-30.49v-11.06h15.25v-10.46h-15.25V71.57H353.08z"/>
</g>
<g>
</g>
<g>
</g>
<g>
</g>
<g>
</g>
<g>
</g>
<g>
</g>
</svg>
